<svg xmlns="http://www.w3.org/2000/svg" viewBox="0 0 113.5 45.35"><defs><style>.cls-1{fill:#e1b220}</style></defs><title>logo</title><g id="Calque_2" data-name="Calque 2"><path class="cls-1" d="M56 30.5c0-4 2.94-3.9 3.07-3.89a1.59 1.59 0 0 0 1.15.41c19.67-1.64 6.69-16.34 6.69-16.34 1.4 2.31-1 4-1 4a11.14 11.14 0 0 0-7.75 10.13c0 .09 0 .18.07.26-2.21.27-1.56-1.82-1.56-1.82A15.73 15.73 0 0 0 57 20.7a2 2 0 0 0 .9-.72C72-1.62 46.36 0 46.36 0c3.52.41 3.34 4.24 3.34 4.24A14.54 14.54 0 0 0 54 20.36a6 6 0 0 0 1.1.41c-.53 3-2.32 3.92-3.47 4.21-3-19.11-16.71-5.4-16.71-5.4 2.23-1.54 4.07.76 4.07.76a11.16 11.16 0 0 0 10.61 7.08 3.16 3.16 0 0 0 1.73-1c2.23-.21 1.64 4.13 1.64 4.13.05 4.33-13.11 3.54-13.11 3.54 10.69 1.66 31.62-.28 31.62-.28C55 34 56 30.5 56 30.5zM8 41.34A5.25 5.25 0 0 0 5.71 41h-2q-2.2 0-2.21-1t1.21-1h3.44q1.46 0 1.46 1H9q0-2.09-2.74-2.09H2.57a3.3 3.3 0 0 0-1.86.42A1.85 1.85 0 0 0 0 40a1.77 1.77 0 0 0 1 1.75 5.42 5.42 0 0 0 2.22.35h2.24a4.81 4.81 0 0 1 1.41.16 1 1 0 0 1 .79 1 .9.9 0 0 1-.45.86 2.37 2.37 0 0 1-1 .18H2.83q-1.44 0-1.44-1H0q0 2.1 2.55 2.1h3.94a3.19 3.19 0 0 0 1.9-.44A2 2 0 0 0 9 43.17a1.87 1.87 0 0 0-1-1.83zm10.57-2.95a6.34 6.34 0 0 0-2.8-.47H14a7.19 7.19 0 0 0-2.47.31 1.78 1.78 0 0 0-1.08 1.16 8.16 8.16 0 0 0-.24 2.38 6.64 6.64 0 0 0 .32 2.23 1.79 1.79 0 0 0 1.12 1.05 7.78 7.78 0 0 0 2.37.26h1.72a7.9 7.9 0 0 0 2.88-.31 1.8 1.8 0 0 0 1-1.84h-1.3a.88.88 0 0 1-.7.95 8.67 8.67 0 0 1-1.9.13h-1.63a4.29 4.29 0 0 1-2.09-.32c-.38-.26-.56-.88-.55-1.87h8.09v-2.26a1.7 1.7 0 0 0-.97-1.4zM11.49 41c0-.86.2-1.42.59-1.65a4.65 4.65 0 0 1 2.05-.35h1.58a9.47 9.47 0 0 1 1.78.1.9.9 0 0 1 .8.71v1.13zm15.92 3a4.18 4.18 0 0 1-1.33.15h-2.23a3.62 3.62 0 0 1-1.53-.23 1.07 1.07 0 0 1-.57-.8 9.21 9.21 0 0 1-.08-1.51 3.72 3.72 0 0 1 .32-2c.28-.36.94-.54 2-.54h2.08q2 0 2 1.1h1.33a2 2 0 0 0-1-1.93 5.19 5.19 0 0 0-2.33-.38H24a5.88 5.88 0 0 0-2.37.36 1.89 1.89 0 0 0-1 1.21 8.34 8.34 0 0 0-.22 2.29 4.41 4.41 0 0 0 .59 2.84q.7.79 2.86.79h2.29a5.29 5.29 0 0 0 2.32-.35 2 2 0 0 0 .94-2h-1.35a1 1 0 0 1-.65 1zm10.07-5.52a3.76 3.76 0 0 0-2.11-.53h-1.61a2.43 2.43 0 0 0-2.09 1v-1h-1.33v7.39h1.32V40.9a1.68 1.68 0 0 1 .6-1.34 2.22 2.22 0 0 1 1.5-.51h1.62q1.58 0 1.72 1.16h1.32a2.07 2.07 0 0 0-.94-1.73zm10.46-.09a6.35 6.35 0 0 0-2.81-.47h-1.72a7.18 7.18 0 0 0-2.47.31 1.78 1.78 0 0 0-1.08 1.16 8.16 8.16 0 0 0-.24 2.38A6.7 6.7 0 0 0 39.9 44a1.79 1.79 0 0 0 1.1 1.07 7.78 7.78 0 0 0 2.37.26h1.72A7.91 7.91 0 0 0 48 45a1.8 1.8 0 0 0 1-1.84h-1.32a.88.88 0 0 1-.7.95 8.66 8.66 0 0 1-1.9.13h-1.62a4.3 4.3 0 0 1-2.05-.31c-.38-.26-.56-.88-.56-1.87h8.1v-2.27a1.7 1.7 0 0 0-1.01-1.4zM40.85 41c0-.86.2-1.42.59-1.65a4.66 4.66 0 0 1 2.05-.35h1.59a9.46 9.46 0 0 1 1.77.1.9.9 0 0 1 .8.71v1.13zm8.41-1.92h3.49v3.51a2.91 2.91 0 0 0 .64 2.11 3 3 0 0 0 2.18.64h.09v-1.11a2 2 0 0 1-1.12-.33 1.44 1.44 0 0 1-.45-1.2v-3.62h4v-1.13h-8.83zm16.32-.02h4v3.64A1.37 1.37 0 0 1 69 44a2.54 2.54 0 0 1-1.33.26h-1.16a2.88 2.88 0 0 1-1.58-.27 1.64 1.64 0 0 1-.47-1.42h-1.34a3.12 3.12 0 0 0 .61 2.19 3.08 3.08 0 0 0 2.24.63h2.08a3 3 0 0 0 2.18-.64 2.91 2.91 0 0 0 .64-2.11v-4.69h-5.29zM78 37.91h-2.39a4.8 4.8 0 0 0-2 .38 2 2 0 0 0-1.23 1.93h1.35q0-1.09 2-1.1h2.2a2.4 2.4 0 0 1 1.75.47 2.73 2.73 0 0 1 .32 1.75 1.45 1.45 0 0 0-.91-.46 3.38 3.38 0 0 0-.74-.09h-2.73a5.32 5.32 0 0 0-2.3.36 2 2 0 0 0-1 1.86 2 2 0 0 0 .93 2 5.31 5.31 0 0 0 2.35.37h2.28a3.36 3.36 0 0 0 2.1-.65v.64h1.38V40.9a2.14 2.14 0 0 0 0-.39 2.36 2.36 0 0 0-.56-1.6 3.6 3.6 0 0 0-2.8-1zm1.55 5.94a3.31 3.31 0 0 1-1.65.31h-2.26a4.24 4.24 0 0 1-1.3-.14.91.91 0 0 1-.67-.93 1 1 0 0 1 .7-1 3.9 3.9 0 0 1 1.29-.16h2.68c1.05 0 1.59.33 1.63 1a1 1 0 0 1-.45.92zm10.31-5.37a3.76 3.76 0 0 0-2.11-.53h-1.62a2.43 2.43 0 0 0-2.1 1v-1h-1.31v7.39H84V40.9a1.68 1.68 0 0 1 .6-1.34 2.22 2.22 0 0 1 1.5-.51h1.62q1.57 0 1.72 1.16h1.32a2.06 2.06 0 0 0-.9-1.73zm9.82-.06a4.64 4.64 0 0 0-2.39-.47H92v7.4h5.48a3.6 3.6 0 0 0 2.6-.71 3.73 3.73 0 0 0 .62-2.51 13.2 13.2 0 0 0-.13-2.31 2 2 0 0 0-.89-1.4zm-.3 3.67a2.79 2.79 0 0 1-.38 1.69 2.39 2.39 0 0 1-1.73.44h-4v-5.15h3.87a2.53 2.53 0 0 1 1.74.43 2.37 2.37 0 0 1 .44 1.66zm2.83-4.14h1.32v7.39h-1.32zm10.39.79a3.66 3.66 0 0 0-2.51-.79h-1.63a3.66 3.66 0 0 0-2.5.79 2.93 2.93 0 0 0-.9 2.32v4.28h1.32V40.9a1.7 1.7 0 0 1 .57-1.36 2.24 2.24 0 0 1 1.51-.49h1.63a2.24 2.24 0 0 1 1.51.49 1.7 1.7 0 0 1 .57 1.36v4.44h1.32v-4.28a2.93 2.93 0 0 0-.89-2.32z" id="logo"/></g></svg>