<svg xmlns="http://www.w3.org/2000/svg" viewBox="0 0 212.45 247.79"><title>home</title><g id="Calque_2" data-name="Calque 2"><g id="Capa_1" data-name="Capa 1"><path d="M207.77,122.9c-3.31,0-4,2.68-4,6V240.79H133.39v-72.1a6,6,0,0,0-6-6h-45a6,6,0,0,0-6,6V221.9c0,3.31.68,6,4,6s4-2.69,4-6V170.69h41v70.1H8V85.93L105.88,7.69l98.14,79c2.58,2.07,5.36,3.66,7.43,1.07s.66-4.36-1.93-6.43L109.64,1.32a6,6,0,0,0-7.51,0L2.25,81.37A6,6,0,0,0,0,86.05V241.79a6,6,0,0,0,6,6H205.77a6,6,0,0,0,6-6V128.9C211.77,125.58,211.08,122.9,207.77,122.9Z"/></g></g></svg>