<svg xmlns="http://www.w3.org/2000/svg" viewBox="0 0 250.48 244.78"><title>skills 2</title><g id="Calque_2" data-name="Calque 2"><g id="Calque_1-2" data-name="Calque 1"><g id="Calque_4" data-name="Calque 4"><g id="Capa_1_-_copie_2" data-name="Capa 1 - copie 2"><path d="M179.4,207.08a2.47,2.47,0,0,0-3.44,3.45l4.73,4.73a6,6,0,0,1,0,8.48v0l-.12.12a6,6,0,0,1-8.5,0l-4.74-4.74a2.46,2.46,0,0,0-3.07-.31,40.38,40.38,0,0,1-14.48,6,2.46,2.46,0,0,0-1.95,2.39v6.69a6,6,0,0,1-6,6h-.17a6,6,0,0,1-6-6v-6.69a2.47,2.47,0,0,0-2-2.39,40.45,40.45,0,0,1-14.48-6,2.46,2.46,0,0,0-3.07.31l-4.74,4.74a6,6,0,0,1-8.49,0l-.13-.12a6,6,0,0,1,0-8.5l4.74-4.73a2.48,2.48,0,0,0,.31-3.08,40.26,40.26,0,0,1-6-14.48,2.5,2.5,0,0,0-2.4-2H92.73a6,6,0,0,1-6-6v-.17a6,6,0,0,1,6-6h6.69a2.48,2.48,0,0,0,2.4-1.95,40.26,40.26,0,0,1,6-14.48,2.46,2.46,0,0,0-.31-3.07l-4.74-4.74a6,6,0,0,1,0-8.5l.13-.12a6,6,0,0,1,8.49,0h0l4.74,4.73a2.47,2.47,0,1,0,4-2.85,2.63,2.63,0,0,0-.6-.6l-4.73-4.69a10.9,10.9,0,0,0-15.39,0l-.12.13a10.87,10.87,0,0,0,0,15.37l0,0,3.35,3.35A45.35,45.35,0,0,0,97.47,174H92.73a10.88,10.88,0,0,0-10.88,10.88V185a10.89,10.89,0,0,0,10.88,10.89h4.74a45.41,45.41,0,0,0,5.21,12.6l-3.35,3.3a10.87,10.87,0,0,0,0,15.37l0,0,.12.12a10.9,10.9,0,0,0,15.39,0L118.2,224a45.71,45.71,0,0,0,12.57,5.21v4.74a10.89,10.89,0,0,0,10.88,10.88h.17A10.89,10.89,0,0,0,152.7,233.9v-4.72A45.11,45.11,0,0,0,165.27,224l3.36,3.36a10.9,10.9,0,0,0,15.39,0l.12-.13a10.9,10.9,0,0,0,0-15.39Z"/><path d="M190.74,174H186a45.43,45.43,0,0,0-5.22-12.57l3.36-3.36a10.9,10.9,0,0,0,0-15.39l-.12-.12a10.9,10.9,0,0,0-15.39,0l-3.36,3.33a45.13,45.13,0,0,0-12.57-5.22V136a10.88,10.88,0,0,0-10.88-10.88h-.17A10.88,10.88,0,0,0,130.77,136v6.69a2.47,2.47,0,0,0,4.87.85,2.43,2.43,0,0,0,0-.85V136a6,6,0,0,1,6-6h.17a6,6,0,0,1,6,6v6.69a2.48,2.48,0,0,0,2,2.39,40.18,40.18,0,0,1,14.48,6,2.46,2.46,0,0,0,3.07-.3l4.74-4.73a6,6,0,0,1,8.49,0v0l.12.11a6,6,0,0,1,0,8.49h0L176,159.32a2.41,2.41,0,0,0-.31,3.07,40.26,40.26,0,0,1,6,14.48,2.48,2.48,0,0,0,2.4,1.95h6.69a6,6,0,0,1,6,6V185a6,6,0,0,1-6,6H184a2.48,2.48,0,0,0-.86,4.88,3.1,3.1,0,0,0,.86,0h6.69A10.89,10.89,0,0,0,201.61,185v-.17A10.89,10.89,0,0,0,190.74,174Z"/><path d="M141.73,194.1a9.12,9.12,0,0,1-5.77-2,2.47,2.47,0,0,0-3.08,3.79,14.08,14.08,0,1,0-5.2-10.92,2.47,2.47,0,0,0,4.87,0,9.18,9.18,0,1,1,9.19,9.18Z"/></g><g id="Capa_1" data-name="Capa 1"><path d="M229.46,77.63a2.34,2.34,0,0,0-3.26,3.26l4.48,4.49a5.66,5.66,0,0,1,0,8l0,0-.11.12a5.7,5.7,0,0,1-8,0L218.05,89a2.36,2.36,0,0,0-2.91-.29,38.22,38.22,0,0,1-13.7,5.68,2.34,2.34,0,0,0-1.85,2.26V103a5.69,5.69,0,0,1-5.68,5.68h-.17a5.68,5.68,0,0,1-5.68-5.68V96.72a2.35,2.35,0,0,0-1.85-2.27,38.07,38.07,0,0,1-13.71-5.67,2.34,2.34,0,0,0-2.91.28l-4.47,4.49a5.7,5.7,0,0,1-8.05,0l-.11-.12a5.69,5.69,0,0,1,0-8l4.48-4.48a2.33,2.33,0,0,0,.29-2.91,38.14,38.14,0,0,1-5.68-13.7,2.34,2.34,0,0,0-2.26-1.85h-6.33a5.7,5.7,0,0,1-5.69-5.68V56.6a5.7,5.7,0,0,1,5.69-5.68h6.33a2.32,2.32,0,0,0,2.26-1.85,38.14,38.14,0,0,1,5.68-13.7,2.33,2.33,0,0,0-.29-2.91L157,28a5.69,5.69,0,0,1,0-8l.11-.11a5.69,5.69,0,0,1,8,0h0l4.47,4.47a2.34,2.34,0,0,0,3.29-3.24l-4.48-4.48a10.29,10.29,0,0,0-14.55,0h0l-.12.11a10.28,10.28,0,0,0,0,14.55h0l3.18,3.18A42.43,42.43,0,0,0,152,46.32h-4.49a10.3,10.3,0,0,0-10.29,10.3v.16a10.3,10.3,0,0,0,10.27,10.3h4.48A43,43,0,0,0,156.87,79l-3.17,3.18a10.29,10.29,0,0,0,0,14.55h0l.11.12a10.29,10.29,0,0,0,14.55,0h0l3.17-3.23a43.22,43.22,0,0,0,11.9,4.93V103a10.3,10.3,0,0,0,10.29,10.3h.2A10.3,10.3,0,0,0,204.23,103V98.53A43,43,0,0,0,216.1,93.6l3.17,3.17a10.28,10.28,0,0,0,14.55,0h0l.12-.12a10.31,10.31,0,0,0,0-14.56Z"/><path d="M240.19,46.28H235.7a42.73,42.73,0,0,0-4.93-11.89L234,31.2a10.31,10.31,0,0,0,0-14.56l-.12-.11a10.3,10.3,0,0,0-14.56,0l-3.17,3.18a42.81,42.81,0,0,0-11.9-4.89V10.3A10.3,10.3,0,0,0,193.94,0h-.17a10.3,10.3,0,0,0-10.29,10.3v6.33a2.34,2.34,0,0,0,4.61.81,2.75,2.75,0,0,0,0-.81V10.3a5.68,5.68,0,0,1,5.68-5.69h.17a5.69,5.69,0,0,1,5.67,5.69v6.33a2.36,2.36,0,0,0,1.86,2.26,38.22,38.22,0,0,1,13.7,5.68,2.33,2.33,0,0,0,2.91-.29l4.48-4.48a5.68,5.68,0,0,1,8,0h0l.11.11a5.67,5.67,0,0,1,0,8h0l-4.48,4.49a2.29,2.29,0,0,0-.28,2.91A38,38,0,0,1,231.62,49a2.34,2.34,0,0,0,2.27,1.86h6.33a5.7,5.7,0,0,1,5.69,5.68v.16a5.71,5.71,0,0,1-5.72,5.66h-6.33a2.34,2.34,0,1,0-.81,4.61,2.75,2.75,0,0,0,.81,0h6.33a10.3,10.3,0,0,0,10.29-10.3v-.16A10.31,10.31,0,0,0,240.19,46.28Z"/><path d="M193.82,65.35a8.55,8.55,0,0,1-5.46-1.93A2.34,2.34,0,0,0,185.45,67a13.27,13.27,0,1,0-4.93-10.34,2.34,2.34,0,0,0,4.61,0,8.69,8.69,0,1,1,8.69,8.69Z"/></g><g id="Capa_1_-_copie" data-name="Capa 1 - copie"><path d="M118.34,107.47a3,3,0,0,0-4.18,4.18l5.75,5.75a7.29,7.29,0,0,1,0,10.3l-.15.15a7.3,7.3,0,0,1-10.31,0l-5.74-5.75a3,3,0,0,0-3.73-.37A49,49,0,0,1,82.41,129a3,3,0,0,0-2.37,2.9V140a7.31,7.31,0,0,1-7.29,7.29h-.21A7.3,7.3,0,0,1,65.26,140v-8.12a3,3,0,0,0-2.38-2.9,49,49,0,0,1-17.56-7.28,3,3,0,0,0-3.73.37l-5.75,5.75a7.3,7.3,0,0,1-10.31,0l-.14-.15a7.29,7.29,0,0,1,0-10.29h0l5.74-5.75a3,3,0,0,0,.37-3.73,48.87,48.87,0,0,1-7.28-17.56A3,3,0,0,0,21.32,88H13.2a7.31,7.31,0,0,1-7.29-7.29v-.21A7.3,7.3,0,0,1,13.2,73.2h8.12a3,3,0,0,0,2.9-2.38A48.75,48.75,0,0,1,31.5,53.27a3,3,0,0,0-.37-3.73l-5.74-5.75a7.28,7.28,0,0,1,0-10.3h0l.14-.14a7.28,7.28,0,0,1,10.3,0v0l5.75,5.74a3,3,0,0,0,4.18-4.18L40,29.15a13.18,13.18,0,0,0-18.65,0l0,0-.14.14a13.19,13.19,0,0,0,0,18.65l0,0L25.26,52A54.87,54.87,0,0,0,19,67.27H13.2A13.2,13.2,0,0,0,0,80.48v.21a13.22,13.22,0,0,0,13.2,13.2H19a54.93,54.93,0,0,0,6.33,15.25l-4.07,4.07a13.19,13.19,0,0,0,0,18.65l0,0,.14.15a13.19,13.19,0,0,0,18.65,0h0L44.14,128a55.18,55.18,0,0,0,15.2,6.31V140a13.22,13.22,0,0,0,13.17,13.25h.24A13.21,13.21,0,0,0,86,140.1v-5.83A55.21,55.21,0,0,0,101.25,128l4.07,4.07A13.19,13.19,0,0,0,124,132h0l.15-.15a13.2,13.2,0,0,0,0-18.66h0Z"/><path d="M132.09,67.27h-5.75A54.77,54.77,0,0,0,120,52L124.07,48a13.21,13.21,0,0,0,0-18.67l-.15-.14a13.18,13.18,0,0,0-18.65,0l0,0-4,4.12A54.18,54.18,0,0,0,86,26.9V21.14A13.21,13.21,0,0,0,72.8,7.94h-.21a13.21,13.21,0,0,0-13.2,13.2v8.13a3,3,0,0,0,5.92,0V21.14a7.28,7.28,0,0,1,7.28-7.29h.21A7.3,7.3,0,0,1,80,21.14v8.13a3,3,0,0,0,2.37,2.9A48.6,48.6,0,0,1,100,39.45a3,3,0,0,0,3.73-.38l5.74-5.74a7.28,7.28,0,0,1,10.3,0v0l.15.14a7.3,7.3,0,0,1,0,10.31l-5.75,5.75a3,3,0,0,0-.37,3.73,48.8,48.8,0,0,1,7.28,17.56A3,3,0,0,0,124,73.2h8.12a7.3,7.3,0,0,1,7.29,7.28v.21A7.31,7.31,0,0,1,132.11,88H124a3,3,0,0,0,0,5.91h8.12a13.22,13.22,0,0,0,13.2-13.2v-.21a13.2,13.2,0,0,0-13.21-13.21Z"/><path d="M72.65,91.73a11,11,0,0,1-7-2.48,3,3,0,1,0-4.53,3.93,3,3,0,0,0,.81.66,17,17,0,1,0-6.32-13.25,3,3,0,0,0,5.91,0A11.14,11.14,0,1,1,72.66,91.73Z"/></g></g></g></g></svg>