<?xml version="1.0" encoding="utf-8"?>
<!-- Generator: Adobe Illustrator 23.0.0, SVG Export Plug-In . SVG Version: 6.00 Build 0)  -->
<svg version="1.1" id="Calque_1" xmlns="http://www.w3.org/2000/svg" xmlns:xlink="http://www.w3.org/1999/xlink" x="0px" y="0px"
	 viewBox="0 0 325 283.6" style="enable-background:new 0 0 325 283.6;" xml:space="preserve">
<title>message</title>
<g>
	<g id="Calque_1-2">
		<g id="Capa_1">
			<g id="Calque_2-2">
				<g id="Calque_3">
					<path d="M275.2,120.3c-4.1,0-7.5,1.7-7.5,4.5s3.4,4.5,7.5,4.5h5.7c4.1-0.1,7.4-1.4,7.4-4.5s-3.3-4.5-7.5-4.5L275.2,120.3z"/>
					<path d="M275.2,81.6c-4.1,0-7.5,1.4-7.5,4.5s3.4,4.5,7.5,4.5h5.7c4.1-0.2,7.4-1.5,7.4-4.5s-3.3-4.5-7.5-4.5H275.2z"/>
				</g>
				<path d="M317.5,0H75.8c-4.1,0-7.5,3.4-7.5,7.5v36.1c0,4.1,1.6,7.5,4.5,7.5s4.5-3.4,4.5-7.5V9H316v155h-40.5
					c-4.1,0-7.5,1.4-7.5,4.5s3.4,4.5,7.5,4.5h42c4.1,0,7.5-3.4,7.5-7.5l0,0l0,0V7.5C325,3.4,321.6,0,317.5,0z"/>
			</g>
			<g id="Calque_4">
				<g id="Calque_5">
					<path d="M43.4,105c-4.1,0-7.5,1-7.5,4.5s3.4,4.5,7.5,4.5h119.7c4.1-0.2,7.4-1.2,7.4-4.5s-3.3-4.5-7.5-4.5H43.4z"/>
					<path d="M43.4,145.5c-4.1,0-7.5,1-7.5,4.6s3.4,4.5,7.5,4.4h169.7c4-0.2,7.4-1.3,7.4-4.5s-3.3-4.5-7.5-4.5H43.4z"/>
					<path d="M110.7,33.7c-4.1,0-7.4,1-7.4,4.6c0,3.6,3.4,4.5,7.5,4.4h169.7c4-0.2,7.4-1.3,7.4-4.5s-3.3-4.5-7.5-4.5H110.7z"/>
					<path d="M43.4,186c-4.1,0-7.5,1.3-7.5,4.5s3.4,4.5,7.5,4.5h169.7c4.1-0.1,7.4-1.7,7.4-4.5s-3.3-4.5-7.5-4.5H43.4z"/>
				</g>
				<path d="M249.2,65.8H7.5c-4.1,0-7.5,3.4-7.5,7.5l0,0l0,0v158c0,4.1,3.4,7.5,7.5,7.5h36.7v37.4c0,4.1,3.3,7.5,7.5,7.5
					c1.8,0,3.6-0.7,4.9-1.9l50.8-43.9c3.1-2.8,3.9-6.2,1.5-8.6s-5.3-1.3-8.4,1.4l-47.3,40.9v-34.3c0-4.1-3.4-7.5-7.5-7.5H9v-155
					h238.7v155H138.5c-4.1,0-7.5,1.3-7.5,4.5s3.4,4.5,7.5,4.5h110.7c4.1,0,7.5-3.4,7.5-7.5v-158C256.7,69.1,253.3,65.8,249.2,65.8z"
					/>
			</g>
		</g>
	</g>
</g>
</svg>
