<svg xmlns="http://www.w3.org/2000/svg" viewBox="0 0 737.83 763.08"><title>who-am-i</title><g id="Calque_2" data-name="Calque 2"><g id="Calque_2-2" data-name="Calque 2"><g id="Calque_6" data-name="Calque 6"><path d="M113.65,106s1-15.65-12.08-15.65S89.5,106.19,89.5,106.19V660.68s-1,15.65,12.07,15.65,12.08-15.89,12.08-15.89Z"/><path d="M591.88,483.75s15.66,1,15.66-12.08-15.9-12.08-15.9-12.08H237.15s-15.65-1-15.65,12.08,15.89,12.08,15.89,12.08Z"/><path d="M641.88,553.77s15.66,1,15.66-12.07-15.9-12.08-15.9-12.08H187.15s-15.65-1-15.65,12.08,15.89,12.07,15.89,12.07Z"/><path d="M453.47,273.7c17-11.11,31.12-29.77,31.12-54,0-40.65-29.5-65.6-70.18-65.6s-70.18,24.95-70.18,65.6c0,24.23,14.09,42.88,31.09,54-56,18.45-91.4,71.77-91.4,120.23h24.64c0-47.2,49.65-103,105.85-103s105.49,56.48,105.82,103H544.9C544.9,345.69,509.46,292.2,453.47,273.7Zm-38.84-98.36c22.48.06,45.42,22.47,45.42,44.35S436.94,264.1,414.41,264,368.92,241.5,369,219.58,392.1,175.28,414.63,175.34Z"/><path d="M713.49,64.71S713.11,81,725.74,81s12.09-16.52,12.09-16.52V20a20,20,0,0,0-20-20H20A20,20,0,0,0,0,20S.21,732.11.21,743.05a20.06,20.06,0,0,0,19.82,20h697.8a20.09,20.09,0,0,0,20-20V196s.42-16.52-12.09-16.52-12.25,16.74-12.25,16.74v542.5H24.33V24.33H713.49Z"/></g></g></g></svg>