<?xml version="1.0" encoding="utf-8"?>
<!-- Generator: Adobe Illustrator 23.0.0, SVG Export Plug-In . SVG Version: 6.00 Build 0)  -->
<svg version="1.1" id="Capa_1" xmlns="http://www.w3.org/2000/svg" xmlns:xlink="http://www.w3.org/1999/xlink" x="0px" y="0px"
	 viewBox="0 0 294.8 294.8" style="enable-background:new 0 0 294.8 294.8;" xml:space="preserve">
<path d="M147.4,0c-17.6,0-32,14.4-32,32s14.4,32,32,32s32-14.4,32-32S165.1,0,147.4,0z M147.4,56.5c-13.8,0-25-11.2-25-25
	s11.2-25,25-25s25,11.2,25,25S161.2,56.5,147.4,56.5z"/>
<path d="M261.5,0c-17.6,0-32,14.4-32,32s14.4,32,32,32s32-14.4,32-32S279.2,0,261.5,0z M261.5,56.5c-13.8,0-25-11.2-25-25
	s11.2-25,25-25c13.8,0,25,11.2,25,25S275.3,56.5,261.5,56.5z"/>
<path d="M261.5,115.4c-17.6,0-32,14.4-32,32s14.4,32,32,32s32-14.4,32-32S279.2,115.4,261.5,115.4z M261.5,172.4
	c-13.8,0-25-11.2-25-25s11.2-25,25-25c13.8,0,25,11.2,25,25S275.3,172.4,261.5,172.4z"/>
<path d="M175.4,142.6c-1.7,0.2-3,2.9-3,4.8c0,13.8-11.2,25-25,25s-25-11.2-25-25s11.2-25,25-25c2,0,5.3-1,5.4-3.4
	c0.1-3.3-2.1-3.6-5.4-3.6c-17.6,0-32,14.4-32,32s14.4,32,32,32s32-14.4,32-32C179.4,144.1,177.3,142.4,175.4,142.6z"/>
<path d="M256.7,234.8c0.2,1.7,2.9,3,4.8,3c13.8,0,25,11.2,25,25c0,13.8-11.2,25-25,25c-13.8,0-25-11.2-25-25c0-2-1-5.3-3.4-5.4
	c-3.3-0.1-3.6,2.1-3.6,5.4c0,17.6,14.4,32,32,32s32-14.4,32-32s-14.4-32-32-32C258.2,230.8,256.5,232.9,256.7,234.8z"/>
<path d="M5.3,36.8c1.7-0.2,3-2.9,3-4.8c0-13.8,11.2-25,25-25s25,11.2,25,25s-11.2,25-25,25c-2,0-5.3,1-5.4,3.4
	C27.8,63.6,30,64,33.3,64c17.6,0,32-14.4,32-32S50.9,0,33.3,0s-32,14.4-32,32C1.3,35.3,3.4,37,5.3,36.8z"/>
<path d="M147.4,230.9c-17.6,0-32,14.4-32,32s14.4,32,32,32s32-14.4,32-32C179.4,245.2,165.1,230.9,147.4,230.9z M147.4,287.8
	c-13.8,0-25-11.2-25-25s11.2-25,25-25s25,11.2,25,25C172.4,276.6,161.2,287.8,147.4,287.8z"/>
<path d="M33.3,230.9c-17.6,0-32,14.4-32,32s14.4,32,32,32s32-14.4,32-32C65.3,245.2,51,230.9,33.3,230.9z M33.3,287.8
	c-13.8,0-25-11.2-25-25s11.2-25,25-25s25,11.2,25,25C58.3,276.6,47.1,287.8,33.3,287.8z"/>
<path d="M33.3,115.4c-17.6,0-32,14.4-32,32s14.4,32,32,32s32-14.4,32-32S51,115.4,33.3,115.4z M33.3,172.4c-13.8,0-25-11.2-25-25
	s11.2-25,25-25s25,11.2,25,25S47.1,172.4,33.3,172.4z"/>
</svg>
