<svg xmlns="http://www.w3.org/2000/svg"><symbol id="home" viewBox="0 0 212.45 247.79"><title>home</title><g data-name="Calque 2"><path d="M207.77 122.9c-3.31 0-4 2.68-4 6v111.89h-70.38v-72.1a6 6 0 0 0-6-6h-45a6 6 0 0 0-6 6v53.21c0 3.31.68 6 4 6s4-2.69 4-6v-51.21h41v70.1H8V85.93l97.88-78.24 98.14 79c2.58 2.07 5.36 3.66 7.43 1.07s.66-4.36-1.93-6.43L109.64 1.32a6 6 0 0 0-7.51 0L2.25 81.37A6 6 0 0 0 0 86.05v155.74a6 6 0 0 0 6 6h199.77a6 6 0 0 0 6-6V128.9c0-3.32-.69-6-4-6z" data-name="Capa 1"/></g></symbol><symbol id="logo" viewBox="0 0 439.43 531.84"><title>logo</title><g data-name="Calque 2"><g data-name="Calque 3"><path class="cls-1" d="M40.72 72.95l179.03 126.6 179.88-127.1L219.74.54 40.72 72.95zM1.22 108.95l189.5 135.59-.31 284.96L1.22 108.95z"/><path d="M248.78 244.58l189.44-135.63-189.44 420.57V244.58z"/></g></g></symbol><symbol id="skills" viewBox="0 0 250.48 244.78"><title>skills 2</title><g data-name="Calque 2"><g data-name="Calque 1"><g data-name="Calque 4"><g data-name="Capa 1 - copie 2"><path d="M179.4 207.08a2.47 2.47 0 0 0-3.44 3.45l4.73 4.73a6 6 0 0 1 0 8.48l-.12.12a6 6 0 0 1-8.5 0l-4.74-4.74a2.46 2.46 0 0 0-3.07-.31 40.38 40.38 0 0 1-14.48 6 2.46 2.46 0 0 0-1.95 2.39v6.69a6 6 0 0 1-6 6h-.17a6 6 0 0 1-6-6v-6.69a2.47 2.47 0 0 0-2-2.39 40.45 40.45 0 0 1-14.48-6 2.46 2.46 0 0 0-3.07.31l-4.74 4.74a6 6 0 0 1-8.49 0l-.13-.12a6 6 0 0 1 0-8.5l4.74-4.73a2.48 2.48 0 0 0 .31-3.08 40.26 40.26 0 0 1-6-14.48 2.5 2.5 0 0 0-2.4-2h-6.67a6 6 0 0 1-6-6v-.17a6 6 0 0 1 6-6h6.69a2.48 2.48 0 0 0 2.4-1.95 40.26 40.26 0 0 1 6-14.48 2.46 2.46 0 0 0-.31-3.07l-4.74-4.74a6 6 0 0 1 0-8.5l.13-.12a6 6 0 0 1 8.49 0l4.74 4.73a2.47 2.47 0 1 0 4-2.85 2.63 2.63 0 0 0-.6-.6l-4.73-4.69a10.9 10.9 0 0 0-15.39 0l-.12.13a10.87 10.87 0 0 0 0 15.37l3.35 3.35A45.35 45.35 0 0 0 97.47 174h-4.74a10.88 10.88 0 0 0-10.88 10.88v.12a10.89 10.89 0 0 0 10.88 10.89h4.74a45.41 45.41 0 0 0 5.21 12.6l-3.35 3.3a10.87 10.87 0 0 0 0 15.37l.12.12a10.9 10.9 0 0 0 15.39 0l3.36-3.28a45.71 45.71 0 0 0 12.57 5.21v4.74a10.89 10.89 0 0 0 10.88 10.88h.17a10.89 10.89 0 0 0 10.88-10.93v-4.72a45.11 45.11 0 0 0 12.57-5.18l3.36 3.36a10.9 10.9 0 0 0 15.39 0l.12-.13a10.9 10.9 0 0 0 0-15.39zM190.74 174H186a45.43 45.43 0 0 0-5.22-12.57l3.36-3.36a10.9 10.9 0 0 0 0-15.39l-.12-.12a10.9 10.9 0 0 0-15.39 0l-3.36 3.33a45.13 45.13 0 0 0-12.57-5.22V136a10.88 10.88 0 0 0-10.88-10.88h-.17A10.88 10.88 0 0 0 130.77 136v6.69a2.47 2.47 0 0 0 4.87.85 2.43 2.43 0 0 0 0-.85V136a6 6 0 0 1 6-6h.17a6 6 0 0 1 6 6v6.69a2.48 2.48 0 0 0 2 2.39 40.18 40.18 0 0 1 14.48 6 2.46 2.46 0 0 0 3.07-.3l4.74-4.73a6 6 0 0 1 8.49 0l.12.11a6 6 0 0 1 0 8.49l-4.71 4.67a2.41 2.41 0 0 0-.31 3.07 40.26 40.26 0 0 1 6 14.48 2.48 2.48 0 0 0 2.4 1.95h6.69a6 6 0 0 1 6 6v.18a6 6 0 0 1-6 6H184a2.48 2.48 0 0 0-.86 4.88 3.1 3.1 0 0 0 .86 0h6.69A10.89 10.89 0 0 0 201.61 185v-.17A10.89 10.89 0 0 0 190.74 174z"/><path d="M141.73 194.1a9.12 9.12 0 0 1-5.77-2 2.47 2.47 0 0 0-3.08 3.79 14.08 14.08 0 1 0-5.2-10.92 2.47 2.47 0 0 0 4.87 0 9.18 9.18 0 1 1 9.19 9.18z"/></g><g data-name="Capa 1"><path d="M229.46 77.63a2.34 2.34 0 0 0-3.26 3.26l4.48 4.49a5.66 5.66 0 0 1 0 8l-.11.12a5.7 5.7 0 0 1-8 0l-4.52-4.5a2.36 2.36 0 0 0-2.91-.29 38.22 38.22 0 0 1-13.7 5.68 2.34 2.34 0 0 0-1.85 2.26V103a5.69 5.69 0 0 1-5.68 5.68h-.17a5.68 5.68 0 0 1-5.68-5.68v-6.28a2.35 2.35 0 0 0-1.85-2.27 38.07 38.07 0 0 1-13.71-5.67 2.34 2.34 0 0 0-2.91.28l-4.47 4.49a5.7 5.7 0 0 1-8.05 0l-.11-.12a5.69 5.69 0 0 1 0-8l4.48-4.48a2.33 2.33 0 0 0 .29-2.91 38.14 38.14 0 0 1-5.68-13.7 2.34 2.34 0 0 0-2.26-1.85h-6.33a5.7 5.7 0 0 1-5.69-5.68v-.21a5.7 5.7 0 0 1 5.69-5.68h6.33a2.32 2.32 0 0 0 2.26-1.85 38.14 38.14 0 0 1 5.68-13.7 2.33 2.33 0 0 0-.29-2.91L157 28a5.69 5.69 0 0 1 0-8l.11-.11a5.69 5.69 0 0 1 8 0l4.47 4.47a2.34 2.34 0 0 0 3.29-3.24l-4.48-4.48a10.29 10.29 0 0 0-14.55 0l-.12.11a10.28 10.28 0 0 0 0 14.55l3.18 3.18a42.43 42.43 0 0 0-4.9 11.84h-4.49a10.3 10.3 0 0 0-10.29 10.3v.16a10.3 10.3 0 0 0 10.27 10.3h4.48a43 43 0 0 0 4.9 11.92l-3.17 3.18a10.29 10.29 0 0 0 0 14.55l.11.12a10.29 10.29 0 0 0 14.55 0l3.17-3.23a43.22 43.22 0 0 0 11.9 4.93V103a10.3 10.3 0 0 0 10.29 10.3h.2a10.3 10.3 0 0 0 10.31-10.3v-4.47a43 43 0 0 0 11.87-4.93l3.17 3.17a10.28 10.28 0 0 0 14.55 0l.12-.12a10.31 10.31 0 0 0 0-14.56zM240.19 46.28h-4.49a42.73 42.73 0 0 0-4.93-11.89L234 31.2a10.31 10.31 0 0 0 0-14.56l-.12-.11a10.3 10.3 0 0 0-14.56 0l-3.17 3.18a42.81 42.81 0 0 0-11.9-4.89V10.3A10.3 10.3 0 0 0 193.94 0h-.17a10.3 10.3 0 0 0-10.29 10.3v6.33a2.34 2.34 0 0 0 4.61.81 2.75 2.75 0 0 0 0-.81V10.3a5.68 5.68 0 0 1 5.68-5.69h.17a5.69 5.69 0 0 1 5.67 5.69v6.33a2.36 2.36 0 0 0 1.86 2.26 38.22 38.22 0 0 1 13.7 5.68 2.33 2.33 0 0 0 2.91-.29l4.48-4.48a5.68 5.68 0 0 1 8 0l.11.11a5.67 5.67 0 0 1 0 8l-4.48 4.49a2.29 2.29 0 0 0-.28 2.91A38 38 0 0 1 231.62 49a2.34 2.34 0 0 0 2.27 1.86h6.33a5.7 5.7 0 0 1 5.69 5.68v.16a5.71 5.71 0 0 1-5.72 5.66h-6.33a2.34 2.34 0 1 0-.81 4.61 2.75 2.75 0 0 0 .81 0h6.33a10.3 10.3 0 0 0 10.29-10.3v-.16a10.31 10.31 0 0 0-10.29-10.23z"/><path d="M193.82 65.35a8.55 8.55 0 0 1-5.46-1.93 2.34 2.34 0 0 0-2.91 3.58 13.27 13.27 0 1 0-4.93-10.34 2.34 2.34 0 0 0 4.61 0 8.69 8.69 0 1 1 8.69 8.69z"/></g><g data-name="Capa 1 - copie"><path d="M118.34 107.47a3 3 0 0 0-4.18 4.18l5.75 5.75a7.29 7.29 0 0 1 0 10.3l-.15.15a7.3 7.3 0 0 1-10.31 0l-5.74-5.75a3 3 0 0 0-3.73-.37A49 49 0 0 1 82.41 129a3 3 0 0 0-2.37 2.9v8.1a7.31 7.31 0 0 1-7.29 7.29h-.21a7.3 7.3 0 0 1-7.28-7.29v-8.12a3 3 0 0 0-2.38-2.9 49 49 0 0 1-17.56-7.28 3 3 0 0 0-3.73.37l-5.75 5.75a7.3 7.3 0 0 1-10.31 0l-.14-.15a7.29 7.29 0 0 1 0-10.29l5.74-5.75a3 3 0 0 0 .37-3.73 48.87 48.87 0 0 1-7.28-17.56 3 3 0 0 0-2.9-2.34H13.2a7.31 7.31 0 0 1-7.29-7.29v-.21a7.3 7.3 0 0 1 7.29-7.3h8.12a3 3 0 0 0 2.9-2.38 48.75 48.75 0 0 1 7.28-17.55 3 3 0 0 0-.37-3.73l-5.74-5.75a7.28 7.28 0 0 1 0-10.3l.14-.14a7.28 7.28 0 0 1 10.3 0l5.75 5.74a3 3 0 0 0 4.18-4.18L40 29.15a13.18 13.18 0 0 0-18.65 0l-.14.14a13.19 13.19 0 0 0 0 18.65L25.26 52A54.87 54.87 0 0 0 19 67.27h-5.8A13.2 13.2 0 0 0 0 80.48v.21a13.22 13.22 0 0 0 13.2 13.2H19a54.93 54.93 0 0 0 6.33 15.25l-4.07 4.07a13.19 13.19 0 0 0 0 18.65l.14.15a13.19 13.19 0 0 0 18.65 0l4.09-4.01a55.18 55.18 0 0 0 15.2 6.31V140a13.22 13.22 0 0 0 13.17 13.25h.24A13.21 13.21 0 0 0 86 140.1v-5.83a55.21 55.21 0 0 0 15.25-6.27l4.07 4.07A13.19 13.19 0 0 0 124 132l.15-.15a13.2 13.2 0 0 0 0-18.66zM132.09 67.27h-5.75A54.77 54.77 0 0 0 120 52l4.07-4a13.21 13.21 0 0 0 0-18.67l-.15-.14a13.18 13.18 0 0 0-18.65 0l-4 4.12A54.18 54.18 0 0 0 86 26.9v-5.76a13.21 13.21 0 0 0-13.2-13.2h-.21a13.21 13.21 0 0 0-13.2 13.2v8.13a3 3 0 0 0 5.92 0v-8.13a7.28 7.28 0 0 1 7.28-7.29h.21a7.3 7.3 0 0 1 7.2 7.29v8.13a3 3 0 0 0 2.37 2.9A48.6 48.6 0 0 1 100 39.45a3 3 0 0 0 3.73-.38l5.74-5.74a7.28 7.28 0 0 1 10.3 0l.15.14a7.3 7.3 0 0 1 0 10.31l-5.75 5.75a3 3 0 0 0-.37 3.73 48.8 48.8 0 0 1 7.28 17.56A3 3 0 0 0 124 73.2h8.12a7.3 7.3 0 0 1 7.29 7.28v.21a7.31 7.31 0 0 1-7.3 7.31H124a3 3 0 0 0 0 5.91h8.12a13.22 13.22 0 0 0 13.2-13.2v-.21a13.2 13.2 0 0 0-13.21-13.21z"/><path d="M72.65 91.73a11 11 0 0 1-7-2.48 3 3 0 1 0-4.53 3.93 3 3 0 0 0 .81.66 17 17 0 1 0-6.32-13.25 3 3 0 0 0 5.91 0 11.14 11.14 0 1 1 11.14 11.14z"/></g></g></g></g></symbol><symbol id="speech-bubbles" viewBox="0 0 325 283.6"><title>message</title><path d="M275.2 120.3c-4.1 0-7.5 1.7-7.5 4.5s3.4 4.5 7.5 4.5h5.7c4.1-.1 7.4-1.4 7.4-4.5s-3.3-4.5-7.5-4.5h-5.6zM275.2 81.6c-4.1 0-7.5 1.4-7.5 4.5s3.4 4.5 7.5 4.5h5.7c4.1-.2 7.4-1.5 7.4-4.5s-3.3-4.5-7.5-4.5h-5.6z"/><path d="M317.5 0H75.8c-4.1 0-7.5 3.4-7.5 7.5v36.1c0 4.1 1.6 7.5 4.5 7.5s4.5-3.4 4.5-7.5V9H316v155h-40.5c-4.1 0-7.5 1.4-7.5 4.5s3.4 4.5 7.5 4.5h42c4.1 0 7.5-3.4 7.5-7.5V7.5c0-4.1-3.4-7.5-7.5-7.5z"/><g><path d="M43.4 105c-4.1 0-7.5 1-7.5 4.5s3.4 4.5 7.5 4.5h119.7c4.1-.2 7.4-1.2 7.4-4.5s-3.3-4.5-7.5-4.5H43.4zM43.4 145.5c-4.1 0-7.5 1-7.5 4.6s3.4 4.5 7.5 4.4h169.7c4-.2 7.4-1.3 7.4-4.5s-3.3-4.5-7.5-4.5H43.4zM110.7 33.7c-4.1 0-7.4 1-7.4 4.6 0 3.6 3.4 4.5 7.5 4.4h169.7c4-.2 7.4-1.3 7.4-4.5s-3.3-4.5-7.5-4.5H110.7zM43.4 186c-4.1 0-7.5 1.3-7.5 4.5s3.4 4.5 7.5 4.5h169.7c4.1-.1 7.4-1.7 7.4-4.5s-3.3-4.5-7.5-4.5H43.4z"/><path d="M249.2 65.8H7.5c-4.1 0-7.5 3.4-7.5 7.5v158c0 4.1 3.4 7.5 7.5 7.5h36.7v37.4c0 4.1 3.3 7.5 7.5 7.5 1.8 0 3.6-.7 4.9-1.9l50.8-43.9c3.1-2.8 3.9-6.2 1.5-8.6s-5.3-1.3-8.4 1.4l-47.3 40.9v-34.3c0-4.1-3.4-7.5-7.5-7.5H9v-155h238.7v155H138.5c-4.1 0-7.5 1.3-7.5 4.5s3.4 4.5 7.5 4.5h110.7c4.1 0 7.5-3.4 7.5-7.5v-158c0-4.2-3.4-7.5-7.5-7.5z"/></g></symbol><symbol id="who-am-i" viewBox="0 0 737.83 763.08"><title>who-am-i</title><g data-name="Calque 2"><g data-name="Calque 6"><path d="M113.65 106s1-15.65-12.08-15.65-12.07 15.84-12.07 15.84v554.49s-1 15.65 12.07 15.65 12.08-15.89 12.08-15.89zM591.88 483.75s15.66 1 15.66-12.08-15.9-12.08-15.9-12.08H237.15s-15.65-1-15.65 12.08 15.89 12.08 15.89 12.08zM641.88 553.77s15.66 1 15.66-12.07-15.9-12.08-15.9-12.08H187.15s-15.65-1-15.65 12.08 15.89 12.07 15.89 12.07zM453.47 273.7c17-11.11 31.12-29.77 31.12-54 0-40.65-29.5-65.6-70.18-65.6s-70.18 24.95-70.18 65.6c0 24.23 14.09 42.88 31.09 54-56 18.45-91.4 71.77-91.4 120.23h24.64c0-47.2 49.65-103 105.85-103s105.49 56.48 105.82 103h24.67c0-48.24-35.44-101.73-91.43-120.23zm-38.84-98.36c22.48.06 45.42 22.47 45.42 44.35S436.94 264.1 414.41 264s-45.49-22.5-45.41-44.42 23.1-44.3 45.63-44.24z"/><path d="M713.49 64.71S713.11 81 725.74 81s12.09-16.52 12.09-16.52V20a20 20 0 0 0-20-20H20A20 20 0 0 0 0 20s.21 712.11.21 723.05a20.06 20.06 0 0 0 19.82 20h697.8a20.09 20.09 0 0 0 20-20V196s.42-16.52-12.09-16.52-12.25 16.74-12.25 16.74v542.5H24.33V24.33h689.16z"/></g></g></symbol><symbol id="works" viewBox="0 0 294.8 294.8"><path d="M147.4 0c-17.6 0-32 14.4-32 32s14.4 32 32 32 32-14.4 32-32-14.3-32-32-32zm0 56.5c-13.8 0-25-11.2-25-25s11.2-25 25-25 25 11.2 25 25-11.2 25-25 25zM261.5 0c-17.6 0-32 14.4-32 32s14.4 32 32 32 32-14.4 32-32-14.3-32-32-32zm0 56.5c-13.8 0-25-11.2-25-25s11.2-25 25-25 25 11.2 25 25-11.2 25-25 25zM261.5 115.4c-17.6 0-32 14.4-32 32s14.4 32 32 32 32-14.4 32-32-14.3-32-32-32zm0 57c-13.8 0-25-11.2-25-25s11.2-25 25-25 25 11.2 25 25-11.2 25-25 25zM175.4 142.6c-1.7.2-3 2.9-3 4.8 0 13.8-11.2 25-25 25s-25-11.2-25-25 11.2-25 25-25c2 0 5.3-1 5.4-3.4.1-3.3-2.1-3.6-5.4-3.6-17.6 0-32 14.4-32 32s14.4 32 32 32 32-14.4 32-32c0-3.3-2.1-5-4-4.8zM256.7 234.8c.2 1.7 2.9 3 4.8 3 13.8 0 25 11.2 25 25s-11.2 25-25 25-25-11.2-25-25c0-2-1-5.3-3.4-5.4-3.3-.1-3.6 2.1-3.6 5.4 0 17.6 14.4 32 32 32s32-14.4 32-32-14.4-32-32-32c-3.3 0-5 2.1-4.8 4zM5.3 36.8c1.7-.2 3-2.9 3-4.8 0-13.8 11.2-25 25-25s25 11.2 25 25-11.2 25-25 25c-2 0-5.3 1-5.4 3.4-.1 3.2 2.1 3.6 5.4 3.6 17.6 0 32-14.4 32-32S50.9 0 33.3 0s-32 14.4-32 32c0 3.3 2.1 5 4 4.8zM147.4 230.9c-17.6 0-32 14.4-32 32s14.4 32 32 32 32-14.4 32-32c0-17.7-14.3-32-32-32zm0 56.9c-13.8 0-25-11.2-25-25s11.2-25 25-25 25 11.2 25 25-11.2 25-25 25zM33.3 230.9c-17.6 0-32 14.4-32 32s14.4 32 32 32 32-14.4 32-32c0-17.7-14.3-32-32-32zm0 56.9c-13.8 0-25-11.2-25-25s11.2-25 25-25 25 11.2 25 25-11.2 25-25 25zM33.3 115.4c-17.6 0-32 14.4-32 32s14.4 32 32 32 32-14.4 32-32-14.3-32-32-32zm0 57c-13.8 0-25-11.2-25-25s11.2-25 25-25 25 11.2 25 25-11.2 25-25 25z"/></symbol></svg>