<?xml version="1.0" standalone="no"?>
<!DOCTYPE svg PUBLIC "-//W3C//DTD SVG 20010904//EN"
 "http://www.w3.org/TR/2001/REC-SVG-20010904/DTD/svg10.dtd">
<svg version="1.0" xmlns="http://www.w3.org/2000/svg"
 width="1058.000000pt" height="1058.000000pt" viewBox="0 0 1058.000000 1058.000000"
 preserveAspectRatio="xMidYMid meet">
<metadata>
Created by potrace 1.11, written by Peter Selinger 2001-2013
</metadata>
<g transform="translate(0.000000,1058.000000) scale(0.100000,-0.100000)"
fill="#000000" stroke="none">
<path d="M5250 10564 c-19 -9 -62 -26 -95 -39 -91 -35 -266 -105 -305 -123
-19 -9 -39 -17 -45 -18 -11 -3 -247 -99 -280 -114 -11 -5 -27 -11 -35 -12 -8
-2 -17 -5 -20 -8 -3 -3 -39 -19 -80 -34 -41 -16 -93 -37 -115 -47 -22 -9 -110
-45 -195 -79 -85 -33 -164 -65 -175 -70 -11 -5 -72 -30 -135 -55 -63 -25 -129
-52 -147 -60 -17 -8 -34 -15 -38 -15 -4 0 -21 -6 -38 -14 -18 -8 -84 -35 -147
-61 -63 -25 -124 -50 -135 -55 -11 -4 -54 -22 -96 -39 -42 -17 -90 -36 -105
-42 -16 -7 -33 -13 -39 -15 -15 -4 -355 -142 -390 -158 -16 -8 -64 -27 -105
-42 -41 -16 -78 -32 -81 -37 -3 -5 -9 -8 -13 -7 -7 2 -48 -12 -101 -35 -16 -8
-88 -36 -160 -65 -71 -28 -142 -57 -157 -65 -14 -8 -31 -15 -38 -15 -6 0 -30
-9 -52 -20 -23 -11 -45 -20 -50 -20 -4 0 -31 -11 -60 -24 -29 -13 -63 -27 -76
-31 -13 -4 -22 -11 -20 -15 2 -5 55 -45 118 -90 63 -44 123 -87 133 -95 9 -8
19 -15 22 -15 2 0 33 -21 69 -47 36 -27 100 -73 143 -103 43 -30 80 -58 81
-62 2 -5 10 -8 17 -8 7 0 15 -3 17 -7 2 -5 32 -28 68 -53 36 -24 70 -48 75
-52 6 -5 48 -35 95 -68 47 -32 90 -64 97 -69 7 -6 16 -11 22 -11 5 0 11 -4 13
-8 2 -4 98 -74 213 -155 116 -81 217 -154 226 -161 9 -8 52 -38 95 -67 44 -29
84 -57 89 -62 32 -27 163 -118 178 -123 9 -4 17 -10 17 -15 0 -5 7 -9 15 -9 8
0 15 -3 15 -7 0 -5 17 -19 38 -33 20 -14 39 -27 42 -31 3 -3 20 -14 38 -24 17
-11 32 -23 32 -27 0 -4 5 -8 11 -8 6 0 30 -15 52 -32 23 -18 49 -37 58 -43 25
-15 142 -97 156 -109 6 -6 41 -31 77 -56 66 -45 262 -183 281 -198 19 -14 280
-197 325 -227 25 -16 47 -33 50 -37 3 -4 21 -17 40 -31 95 -64 176 -122 188
-134 7 -7 17 -13 22 -13 5 0 15 -6 22 -13 7 -7 24 -20 38 -29 14 -10 43 -30
65 -46 22 -15 72 -50 110 -77 39 -27 76 -55 83 -62 12 -11 20 -10 50 9 21 12
39 26 40 30 2 4 8 8 14 8 6 0 24 11 42 25 17 14 36 29 41 33 6 4 25 17 43 27
17 11 32 23 32 27 0 4 5 8 11 8 6 0 16 6 24 13 14 13 345 246 373 262 9 6 19
13 22 16 3 3 37 27 75 54 39 28 75 53 80 58 12 10 149 107 179 127 13 8 42 29
66 45 24 17 50 35 59 40 8 6 20 15 26 20 11 9 47 35 238 167 45 32 89 64 98
73 9 8 21 15 27 15 5 0 12 4 14 8 2 4 41 34 88 66 47 33 87 62 90 66 3 4 15
10 28 14 12 4 22 11 22 15 0 5 27 25 60 46 33 21 60 42 60 46 0 5 6 9 13 9 6
0 23 9 37 21 14 11 63 47 110 80 47 32 90 62 95 67 6 4 71 50 145 102 74 52
140 98 145 102 6 5 48 35 95 68 47 32 90 63 95 67 6 4 21 16 35 25 14 9 48 33
75 53 28 19 76 53 107 75 32 21 63 44 70 50 7 6 85 61 173 123 88 62 171 120
185 130 89 64 130 94 147 104 51 35 139 98 143 103 3 4 13 9 23 13 18 7 23 26
7 28 -20 3 -25 4 -36 11 -6 4 -37 17 -70 29 -32 12 -63 25 -69 30 -5 5 -15 9
-22 9 -7 0 -32 9 -56 19 -23 11 -73 31 -112 46 -38 15 -76 32 -82 37 -7 6 -13
8 -13 5 0 -3 -17 1 -37 10 -74 30 -88 36 -98 39 -13 4 -354 141 -380 153 -23
11 -637 255 -645 257 -3 0 -16 5 -30 11 -14 6 -45 19 -70 28 -25 10 -49 22
-54 27 -6 4 -15 8 -22 8 -6 0 -29 8 -50 17 -22 9 -43 18 -49 19 -12 3 -225 89
-275 111 -19 9 -39 17 -45 18 -9 3 -183 72 -245 98 -14 5 -29 11 -35 13 -5 1
-246 97 -533 213 -288 116 -531 212 -540 215 -10 3 -33 -2 -52 -10z"/>
<path d="M949 8348 c15 -35 37 -83 48 -108 12 -25 30 -66 42 -92 11 -27 30
-68 41 -92 11 -25 20 -49 20 -54 0 -5 7 -15 15 -22 9 -7 14 -15 11 -17 -2 -2
13 -41 34 -86 51 -111 83 -182 109 -242 33 -75 50 -112 88 -195 53 -116 65
-145 63 -145 -1 0 11 -27 28 -60 26 -51 39 -82 47 -105 1 -3 16 -36 34 -75 18
-38 39 -83 46 -100 20 -46 74 -164 103 -225 14 -30 26 -60 28 -65 1 -6 18 -43
37 -83 20 -40 37 -76 38 -80 3 -9 34 -81 65 -149 13 -29 36 -79 50 -110 14
-32 35 -78 46 -103 24 -54 62 -138 90 -200 11 -25 26 -57 34 -72 8 -16 12 -28
9 -28 -4 0 3 -13 14 -29 12 -16 21 -33 21 -39 0 -5 6 -22 14 -38 8 -16 24 -51
36 -79 12 -27 33 -74 46 -102 27 -59 68 -150 91 -203 8 -19 26 -56 39 -82 13
-27 21 -48 17 -48 -3 0 -1 -6 5 -12 6 -7 37 -74 70 -148 65 -148 88 -199 139
-309 33 -71 55 -121 58 -131 0 -3 16 -36 34 -75 31 -65 52 -113 56 -125 1 -3
18 -40 37 -82 20 -42 42 -92 49 -112 7 -20 17 -36 21 -36 4 0 8 -6 8 -14 0 -7
16 -49 36 -92 20 -44 45 -99 56 -124 11 -25 30 -67 43 -95 12 -27 32 -72 45
-100 12 -27 35 -77 50 -110 16 -33 29 -64 30 -70 1 -5 7 -19 13 -30 6 -11 12
-22 12 -25 0 -3 9 -19 18 -37 9 -18 17 -39 17 -47 0 -8 3 -16 8 -18 4 -1 22
-39 41 -83 19 -44 47 -107 63 -139 15 -33 28 -65 28 -73 0 -7 5 -13 10 -13 6
0 10 -7 10 -15 0 -8 9 -30 20 -50 11 -19 20 -37 20 -40 0 -3 11 -31 26 -63 14
-31 64 -142 111 -247 89 -199 107 -239 168 -370 20 -44 45 -101 56 -127 10
-27 32 -75 49 -108 17 -33 30 -62 30 -65 0 -3 11 -29 24 -57 13 -29 53 -118
89 -198 62 -138 82 -183 143 -318 14 -31 46 -102 71 -157 25 -55 53 -118 63
-140 10 -22 38 -85 63 -140 25 -55 56 -125 70 -155 14 -30 35 -77 47 -105 12
-27 31 -70 42 -95 36 -80 110 -244 133 -295 83 -182 155 -346 155 -357 0 -6 3
-8 7 -5 4 4 8 1285 10 2846 l3 2839 -107 78 c-60 42 -126 90 -148 106 -22 16
-65 47 -95 68 -30 22 -63 45 -72 52 -9 7 -26 20 -38 28 -20 13 -154 109 -205
146 -11 8 -60 43 -110 78 -49 35 -97 70 -105 78 -9 7 -34 25 -55 38 -22 14
-47 30 -55 37 -43 34 -111 83 -116 83 -3 0 -11 6 -18 13 -8 6 -24 19 -36 27
-12 8 -28 20 -34 25 -7 6 -19 15 -28 20 -9 6 -80 56 -158 113 -78 56 -146 102
-151 102 -5 0 -9 3 -9 8 0 4 -18 18 -40 32 -22 14 -40 28 -40 32 0 5 -6 8 -14
8 -8 0 -16 4 -18 8 -2 7 -55 46 -152 112 -45 30 -131 95 -144 107 -7 7 -20 13
-28 13 -8 0 -12 5 -9 10 3 6 2 10 -4 10 -8 0 -259 174 -306 213 -20 16 -296
212 -313 222 -9 6 -19 13 -22 16 -6 6 -232 168 -258 184 -9 6 -25 18 -36 28
-11 9 -23 17 -26 17 -4 0 -18 10 -31 21 -21 19 -41 33 -117 84 -8 6 -26 20
-40 33 -14 12 -31 22 -38 22 -7 0 -17 6 -21 13 -4 6 -21 21 -38 33 -119 82
-140 98 -143 106 -2 4 -8 8 -13 8 -6 0 -15 5 -22 10 -7 6 -30 24 -52 40 -22
16 -45 34 -52 40 -7 5 -16 10 -21 10 -4 0 -17 8 -28 18 -10 10 -41 33 -69 52
-27 19 -52 37 -55 40 -3 3 -26 20 -52 38 l-48 33 29 -63z"/>
<path d="M9510 8304 c-80 -58 -156 -112 -170 -122 -14 -9 -57 -40 -97 -69 -40
-29 -77 -53 -82 -53 -6 0 -11 -3 -11 -8 0 -4 -29 -27 -65 -51 -36 -24 -65 -49
-65 -54 0 -6 -3 -8 -6 -5 -3 4 -35 -16 -72 -44 -36 -28 -76 -55 -89 -61 -13
-6 -23 -13 -23 -18 0 -4 -27 -24 -60 -45 -33 -22 -60 -42 -60 -46 0 -5 -5 -8
-11 -8 -10 0 -67 -39 -103 -72 -11 -10 -28 -20 -38 -24 -10 -3 -18 -9 -18 -14
0 -5 -8 -11 -18 -14 -10 -4 -27 -14 -38 -24 -11 -9 -35 -28 -55 -42 -20 -14
-136 -97 -258 -185 -123 -88 -249 -178 -280 -200 -32 -22 -86 -60 -120 -85
-58 -42 -140 -101 -186 -134 -11 -8 -74 -53 -140 -100 -66 -47 -124 -89 -130
-93 -5 -5 -35 -26 -65 -47 -30 -22 -56 -43 -58 -48 -2 -4 -9 -8 -14 -8 -6 0
-34 -17 -62 -38 -52 -39 -156 -115 -196 -142 -12 -8 -82 -59 -156 -112 -74
-54 -139 -98 -144 -98 -4 0 -10 -4 -12 -8 -3 -7 -116 -90 -268 -197 -30 -21
-59 -42 -65 -47 -5 -4 -41 -30 -80 -58 -38 -27 -75 -54 -82 -60 -7 -5 -15 -10
-19 -10 -3 0 -20 -12 -38 -26 -17 -14 -56 -43 -86 -65 -30 -21 -65 -46 -77
-55 l-23 -17 1 -2846 c1 -2666 2 -2844 17 -2811 31 66 76 165 77 170 1 3 12
28 25 55 77 164 100 215 100 220 0 3 20 48 45 101 25 52 45 97 45 99 0 3 20
47 90 200 50 111 82 181 83 185 0 3 20 46 43 95 44 95 76 167 79 175 0 3 15
36 33 73 18 38 32 70 32 72 0 3 19 44 96 210 15 33 28 62 29 65 0 3 13 32 28
64 15 33 30 70 33 83 4 13 9 23 13 23 4 0 13 17 21 38 7 20 28 69 45 107 69
150 89 193 127 280 22 50 50 113 63 140 12 28 37 84 55 125 18 41 38 78 44 82
6 4 8 8 4 8 -4 0 7 30 24 68 16 37 39 87 50 112 11 25 38 83 59 128 22 46 39
86 39 88 0 3 21 50 94 207 20 43 36 80 36 82 0 2 18 43 41 92 22 48 59 129 81
178 23 50 51 113 64 140 12 28 35 77 50 110 15 33 28 62 29 65 1 3 10 23 20
45 10 22 19 42 20 45 5 15 28 67 36 80 5 8 12 22 15 30 3 8 10 23 15 32 5 10
9 25 9 33 0 8 4 15 9 15 5 0 12 12 17 28 10 36 7 28 43 107 45 97 65 141 96
210 37 81 68 150 95 210 13 28 24 52 25 55 4 14 28 67 36 80 5 8 12 22 15 30
12 29 32 75 59 135 15 33 38 85 52 115 13 30 32 71 41 90 9 19 17 37 17 40 1
3 13 31 28 64 15 32 27 62 27 67 0 5 5 9 12 9 6 0 8 3 5 6 -4 4 2 23 13 43 10
20 38 79 61 131 23 52 51 115 62 140 11 25 21 47 22 50 1 3 14 32 29 65 15 33
45 99 66 146 41 92 134 297 212 469 33 72 51 112 53 120 0 3 17 40 38 83 20
44 37 80 37 82 0 2 15 36 34 77 80 174 106 233 111 248 1 3 15 34 32 70 34 72
50 107 118 260 26 58 59 130 73 160 14 30 26 57 27 60 3 11 24 58 55 125 18
39 52 115 77 170 25 55 58 128 74 163 16 35 29 65 29 67 0 4 69 155 77 168 8
13 0 8 -147 -99z"/>
</g>
</svg>
