<svg xmlns="http://www.w3.org/2000/svg" viewBox="0 0 454.51 203.54"><defs><style>.cls-1{fill:#fff}.cls-2{fill:#1b75bb}</style></defs><title>af_with_white</title><g id="Calque_2" data-name="Calque 2"><g id="af_white"><path class="cls-1" d="M84.56 102.38l28.69 72.78h5.83l-30-77.77c-6.29-.44-9.85 1.85-12.32 8.23l-26.87 69.54h5.87z"/><path class="cls-2" d="M138.26 86.44h10.28l-20.42-25.91 5.21-2c13-4.9 18.42-20.7 16.15-33.15-2.22-12.19-11.27-19.49-24.22-19.49h-19.38c-7.1 0-10 3.33-10 11.51v69h8.71V14.22H123c10 0 17.09 6.25 18 15.95.82 9-4.21 19.45-14.07 21.26a25.77 25.77 0 0 1-4.13.31 27.37 27.37 0 0 1-9.3-1.47 8.22 8.22 0 0 0 1.46 6.57zM175 86.44h9v-72h14.21c3.79 0 8-2.67 9.31-8.57h-52.13v8.57H175zM211.91 86.44h42.91V78h-34.2V50.21H245c5 0 8.07-2.65 9.31-8.08h-33.69V14.34h34.21V5.89h-32.42c-6.57 0-10.5 4.2-10.5 11.25z"/><path class="cls-1" d="M17.46 174.7h5.86v-36.23H49c3.88 0 6.34-1.71 7.64-5.36H23.32V102.6h34.34v-5.73H26.09c-6.53 0-8.64 2.31-8.64 9.52zM163.24 95.6h-.55c-17.58.27-29.18 6.47-36.5 19.52-7.15 12.75-6.85 30 .74 43 6.9 11.77 18.86 18.26 33.67 18.26 11.77 0 19.76-3.17 29-11.63l-3.53-3.82a41.54 41.54 0 0 1-10.31 7.07 35.24 35.24 0 0 1-14.92 3.29c-17.17 0-34.56-12.23-34.56-35.6 0-16.77 10.89-30.78 26.48-34.08a39.67 39.67 0 0 1 8.32-.85c8.77 0 20.32 2.87 27.61 10.79a7.42 7.42 0 0 0 0-5.7c-2.84-6.12-15.43-10.22-25.41-10.22M219.49 174.7h6.27v-72h15.58c2.58 0 5.91-1.57 7.49-5.86h-49v5.86h19.64zM263.95 113.37c-4.45 0-10.62 2-13.38 7.49-2 3.84-2.85 10.33-2.85 15.06a40.35 40.35 0 0 0 11.55 28.81c7.64 8 17.41 12 29 12A38.28 38.28 0 0 0 316.63 165c7.79-7.81 11.58-17.2 11.58-28.72a39.73 39.73 0 0 0-11.83-29.1 38.41 38.41 0 0 0-28.22-12 39.48 39.48 0 0 0-16.65 3.57 23.59 23.59 0 0 1 7.35 3.12 36 36 0 0 1 9-1.07 33 33 0 0 1 24.41 10.2 35.14 35.14 0 0 1 10 25.12 34.62 34.62 0 0 1-9.87 25.06 32.67 32.67 0 0 1-24.07 10.29 33.64 33.64 0 0 1-22.11-8c-7.73-6.25-11.89-14.7-12.34-25.1-.33-8.95 2.84-14.2 5.56-17a16.67 16.67 0 0 1 13.24-4.8c-1.77-2-5-3.23-8.69-3.23M384.83 174.7h6.81l-19.84-25.16 7-2.61c12.33-4.64 17.46-19.73 15.3-31.64-2.1-11.53-10.66-18.41-22.88-18.41h-19.46c-6.29 0-8.64 2.76-8.64 10.15v67.67h6v-72.22h19.75c10.78 0 18.36 6.75 19.33 17.19.87 9.63-4.56 20.77-15.18 22.73a27.92 27.92 0 0 1-4.38.33 30.73 30.73 0 0 1-8.08-1 6.48 6.48 0 0 0 1.32 3.9zM408.19 167.76a10 10 0 0 0 1.06 1.74c3 4 9.42 6.34 17.49 6.34 17.91 0 27.77-9.59 27.77-27v-52h-5.36V155l-2.1 4.63c-3.47 7.48-10.93 11.6-21.79 12h-1.33a34.54 34.54 0 0 1-15.75-3.89m.82-70.89v37.27c0 6.07 1.31 10.32 4 13a17.06 17.06 0 0 0 12.46 5.17h1.24c5.44-.33 12.43-3 13.63-6.16l.51-1.33a17.21 17.21 0 0 1-10.52 3.52c-7.17 0-13-4.71-15-12-1.43-5.17-1.41-20.64-1.25-38.81v-.62z"/><path class="cls-2" d="M40.57 10.14L7 23.34s-10.24 5.47-6 16.37c2.29 5.69 8.42 21.16 13.76 34.64l22.88-59.06a18 18 0 0 1 2.93-5.15M46.56 14.8l-3.8 9.65c-10 25.89-15.19 39.23-23.58 61l4.75 12 47.42-18.72-3.66-9.67zM89.4 58.61L66.35 0 50.47 6.24a11.61 11.61 0 0 1 1.62.08l26.74 69.47 1.93-.79s12.6-6.33 8.64-16.42"/><path class="cls-1" d="M24.76 191.44l4.65 11.85h-1.25l-1.4-3.68h-5.44l-1.43 3.68H18.7l4.76-11.85zm1.61 7.2l-2.29-6.08-2.37 6.08zM52.13 191.44a5.08 5.08 0 0 1 1.39.18 3.43 3.43 0 0 1 1.15.56 2.68 2.68 0 0 1 .78 1 3.07 3.07 0 0 1 .29 1.39 3.34 3.34 0 0 1-.58 2 2.64 2.64 0 0 1-1.73 1.06 2.62 2.62 0 0 1 1 .31 1.92 1.92 0 0 1 .62.57 2.25 2.25 0 0 1 .35.81 5.76 5.76 0 0 1 .14 1v.68a4.25 4.25 0 0 0 .06.87 5.71 5.71 0 0 0 .16.83 1.65 1.65 0 0 0 .29.61h-1.29a1.55 1.55 0 0 1-.16-.41 4 4 0 0 1-.08-.5v-.94a10.37 10.37 0 0 0-.11-1.25 3.46 3.46 0 0 0-.32-1.11 2 2 0 0 0-.7-.79 2.09 2.09 0 0 0-1.25-.26h-4.3v5.26h-1.13v-11.87zm-.13 5.63a3.1 3.1 0 0 0 1-.16 2.48 2.48 0 0 0 .81-.46 2.28 2.28 0 0 0 .55-.72 2.2 2.2 0 0 0 .21-1A2.33 2.33 0 0 0 54 193a2.62 2.62 0 0 0-1.93-.63h-4.23V197zM82.25 191.44v.96h-4.13v10.89h-1.13V192.4h-4.12v-.96h9.38zM99.7 191.44h1.13v11.85H99.7zM120.37 200.92a2.51 2.51 0 0 0 .82 1 3.46 3.46 0 0 0 1.24.52 7.17 7.17 0 0 0 1.53.16 4.21 4.21 0 0 0 1-.13 3.55 3.55 0 0 0 1-.42 2.57 2.57 0 0 0 .79-.75 1.88 1.88 0 0 0 .32-1.1 1.62 1.62 0 0 0-.22-.86 2 2 0 0 0-.58-.62 3.43 3.43 0 0 0-.79-.41 6.81 6.81 0 0 0-.85-.26l-2.63-.65a7.65 7.65 0 0 1-1-.33 2.8 2.8 0 0 1-.86-.53 2.49 2.49 0 0 1-.59-.81 2.77 2.77 0 0 1-.22-1.18 3.84 3.84 0 0 1 .16-1 2.82 2.82 0 0 1 .63-1.1 3.58 3.58 0 0 1 1.25-.87 5 5 0 0 1 2-.36 5.94 5.94 0 0 1 1.68.23 4.12 4.12 0 0 1 1.39.7 3.36 3.36 0 0 1 1.31 2.76h-1.13a2.7 2.7 0 0 0-.31-1.19 2.61 2.61 0 0 0-.71-.85 3.1 3.1 0 0 0-1-.52 4.08 4.08 0 0 0-1.2-.17 5 5 0 0 0-1.12.12 2.79 2.79 0 0 0-.95.4 2.08 2.08 0 0 0-.66.72 2.25 2.25 0 0 0-.25 1.11 1.65 1.65 0 0 0 .14.72 1.49 1.49 0 0 0 .39.53 2.09 2.09 0 0 0 .57.35 4.14 4.14 0 0 0 .69.22l2.89.71a8 8 0 0 1 1.18.4 3.94 3.94 0 0 1 1 .6 2.54 2.54 0 0 1 .66.87 2.93 2.93 0 0 1 .24 1.24 4.45 4.45 0 0 1 0 .53 2.7 2.7 0 0 1-.2.71 3.4 3.4 0 0 1-.45.75 2.79 2.79 0 0 1-.8.69 4.65 4.65 0 0 1-1.25.5 7.26 7.26 0 0 1-1.79.19 7.46 7.46 0 0 1-1.94-.24 4.14 4.14 0 0 1-1.53-.74 3.25 3.25 0 0 1-1-1.28 4.19 4.19 0 0 1-.29-1.88H120a3.31 3.31 0 0 0 .28 1.53M154.39 191.44v.96h-4.13v10.89h-1.13V192.4h-4.12v-.96h9.38zM172.57 200.92a2.51 2.51 0 0 0 .82 1 3.5 3.5 0 0 0 1.24.52 7.17 7.17 0 0 0 1.53.16 4.21 4.21 0 0 0 1-.13 3.52 3.52 0 0 0 1-.42 2.59 2.59 0 0 0 .79-.75 1.87 1.87 0 0 0 .32-1.1 1.62 1.62 0 0 0-.22-.86 2 2 0 0 0-.58-.62 3.42 3.42 0 0 0-.79-.41 6.89 6.89 0 0 0-.84-.26l-2.64-.65a7.73 7.73 0 0 1-1-.33 2.86 2.86 0 0 1-.86-.53 2.52 2.52 0 0 1-.59-.81 2.82 2.82 0 0 1-.22-1.18 3.84 3.84 0 0 1 .16-1 2.83 2.83 0 0 1 .62-1.1 3.62 3.62 0 0 1 1.25-.87 5 5 0 0 1 2-.36 5.93 5.93 0 0 1 1.68.23 4.14 4.14 0 0 1 1.4.7 3.5 3.5 0 0 1 1 1.15 3.43 3.43 0 0 1 .36 1.6h-1.13a2.77 2.77 0 0 0-.31-1.19 2.64 2.64 0 0 0-.71-.85 3.14 3.14 0 0 0-1-.52 4.11 4.11 0 0 0-1.21-.17 5 5 0 0 0-1.12.12 2.75 2.75 0 0 0-.95.4 2.07 2.07 0 0 0-.66.72 2.25 2.25 0 0 0-.25 1.11 1.68 1.68 0 0 0 .14.72 1.49 1.49 0 0 0 .39.53 2.07 2.07 0 0 0 .57.35 4 4 0 0 0 .69.22l2.89.71a8 8 0 0 1 1.18.4 4 4 0 0 1 1 .6 2.51 2.51 0 0 1 .66.87 2.9 2.9 0 0 1 .24 1.24 4.45 4.45 0 0 1 0 .53 2.62 2.62 0 0 1-.2.71 3.39 3.39 0 0 1-.45.75 2.82 2.82 0 0 1-.8.69 4.68 4.68 0 0 1-1.25.5 7.31 7.31 0 0 1-1.79.19 7.43 7.43 0 0 1-1.94-.24 4.12 4.12 0 0 1-1.53-.74 3.25 3.25 0 0 1-1-1.28 4.18 4.18 0 0 1-.29-1.88h1.13a3.33 3.33 0 0 0 .28 1.53M222.88 191.44v.96h-6.38v4.28h5.67v.97h-5.67v5.64h-1.13v-11.85h7.51zM240.25 195a5.87 5.87 0 0 1 1-2 5.06 5.06 0 0 1 1.75-1.36 6.12 6.12 0 0 1 4.89 0 5 5 0 0 1 1.74 1.36 5.76 5.76 0 0 1 1 2 8 8 0 0 1 0 4.68 5.66 5.66 0 0 1-1 2 5.07 5.07 0 0 1-1.74 1.35 6.12 6.12 0 0 1-4.89 0 5.09 5.09 0 0 1-1.75-1.35 5.77 5.77 0 0 1-1-2 8 8 0 0 1 0-4.68m1 4.24a5.1 5.1 0 0 0 .8 1.68 4 4 0 0 0 1.38 1.18 4.27 4.27 0 0 0 2 .45 4.22 4.22 0 0 0 2-.45 4.06 4.06 0 0 0 1.38-1.18 5.09 5.09 0 0 0 .8-1.68 7.13 7.13 0 0 0 0-3.81 5.08 5.08 0 0 0-.8-1.67 4.06 4.06 0 0 0-1.38-1.19 4.22 4.22 0 0 0-2-.45 4.27 4.27 0 0 0-2 .45 4 4 0 0 0-1.38 1.19 5.08 5.08 0 0 0-.8 1.67 7.18 7.18 0 0 0 0 3.81M274.52 191.44a5.1 5.1 0 0 1 1.39.18 3.41 3.41 0 0 1 1.14.56 2.68 2.68 0 0 1 .78 1 3.1 3.1 0 0 1 .29 1.39 3.34 3.34 0 0 1-.58 2 2.65 2.65 0 0 1-1.73 1.06 2.61 2.61 0 0 1 1 .31 1.89 1.89 0 0 1 .62.57 2.33 2.33 0 0 1 .35.81 6.3 6.3 0 0 1 .14 1v.68a3.65 3.65 0 0 0 .07.87 5.57 5.57 0 0 0 .16.83 1.63 1.63 0 0 0 .29.61h-1.24a1.52 1.52 0 0 1-.16-.41 3.52 3.52 0 0 1-.08-.5v-.94a10.37 10.37 0 0 0-.11-1.25 3.37 3.37 0 0 0-.32-1.11 2 2 0 0 0-.7-.79 2.09 2.09 0 0 0-1.25-.26h-4.28v5.26h-1.13v-11.87zm-.08 5.63a3.09 3.09 0 0 0 1-.16 2.5 2.5 0 0 0 .82-.46 2.26 2.26 0 0 0 .55-.72 2.19 2.19 0 0 0 .21-1 2.33 2.33 0 0 0-.63-1.73 2.62 2.62 0 0 0-1.92-.63h-4.22V197zM321.5 191.44v.96h-7.06v4.28h6.61v.97h-6.61v4.67h7.14v.97h-8.27v-11.85h8.19zM339.31 191.44l3.85 10.6h.03l3.82-10.6h1.2l-4.4 11.85h-1.31l-4.38-11.85h1.19zM373.69 191.44v.96h-7.05v4.28h6.61v.97h-6.61v4.67h7.13v.97h-8.26v-11.85h8.18zM392.85 191.44l6.91 10.02h.03v-10.02h1.13v11.85h-1.26l-6.91-10.02h-.03v10.02h-1.13v-11.85h1.26zM427.67 191.44v.96h-4.14v10.89h-1.12V192.4h-4.12v-.96h9.38zM445.85 200.92a2.52 2.52 0 0 0 .82 1 3.52 3.52 0 0 0 1.24.52 7.17 7.17 0 0 0 1.53.16 4.21 4.21 0 0 0 1-.13 3.52 3.52 0 0 0 1-.42 2.58 2.58 0 0 0 .79-.75 1.87 1.87 0 0 0 .32-1.1 1.62 1.62 0 0 0-.22-.86 2 2 0 0 0-.58-.62 3.42 3.42 0 0 0-.79-.41 6.89 6.89 0 0 0-.84-.26l-2.64-.65a7.67 7.67 0 0 1-1-.33 2.85 2.85 0 0 1-.86-.53 2.52 2.52 0 0 1-.59-.81 2.81 2.81 0 0 1-.22-1.18 3.8 3.8 0 0 1 .16-1 2.78 2.78 0 0 1 .62-1.1 3.59 3.59 0 0 1 1.25-.87 5 5 0 0 1 2-.36 5.93 5.93 0 0 1 1.68.23 4.12 4.12 0 0 1 1.4.7 3.46 3.46 0 0 1 1 1.15 3.42 3.42 0 0 1 .36 1.6h-1.13a2.74 2.74 0 0 0-.31-1.19 2.63 2.63 0 0 0-.71-.85 3.13 3.13 0 0 0-1-.52 4.11 4.11 0 0 0-1.2-.17 5 5 0 0 0-1.12.12 2.74 2.74 0 0 0-.94.4 2.06 2.06 0 0 0-.66.72 2.26 2.26 0 0 0-.25 1.11 1.69 1.69 0 0 0 .14.72 1.51 1.51 0 0 0 .39.53 2 2 0 0 0 .58.35 4 4 0 0 0 .69.22l2.89.71a7.92 7.92 0 0 1 1.18.4 4 4 0 0 1 1 .6 2.52 2.52 0 0 1 .66.87 2.9 2.9 0 0 1 .24 1.24 4.24 4.24 0 0 1 0 .53 2.58 2.58 0 0 1-.2.71 3.39 3.39 0 0 1-.45.75 2.83 2.83 0 0 1-.8.69 4.67 4.67 0 0 1-1.25.5 7.31 7.31 0 0 1-1.79.19 7.43 7.43 0 0 1-1.94-.24 4.11 4.11 0 0 1-1.53-.74 3.26 3.26 0 0 1-1-1.28 4.21 4.21 0 0 1-.29-1.88h1.13a3.34 3.34 0 0 0 .28 1.53"/></g></g></svg>